<?xml version="1.0" encoding="utf-8"?>
<!-- Generator: Adobe Illustrator 24.0.3, SVG Export Plug-In . SVG Version: 6.00 Build 0)  -->
<svg version="1.1" id="Capa_1" xmlns="http://www.w3.org/2000/svg" xmlns:xlink="http://www.w3.org/1999/xlink" x="0px" y="0px"
	 viewBox="0 0 512 512" style="enable-background:new 0 0 512 512;" xml:space="preserve">
<style type="text/css">
	.st0{fill:#C1B096;}
</style>
<g>
	<g>
		<path class="st0" d="M374.1,373.3c-7.8-7.8-20.5-7.8-28.3,0.1L276,443.6V20c0-11-9-20-20-20c-11,0-20,9-20,20v423.6l-69.8-70.2
			c-7.8-7.8-20.5-7.9-28.3-0.1c-7.8,7.8-7.9,20.5-0.1,28.3l104,104.5c0,0,0,0,0,0c7.8,7.8,20.5,7.8,28.3,0c0,0,0,0,0,0l104-104.5
			C382,393.8,381.9,381.1,374.1,373.3z"/>
	</g>
</g>
</svg>
