<?xml version="1.0" encoding="utf-8"?>
<!-- Generator: Adobe Illustrator 24.0.3, SVG Export Plug-In . SVG Version: 6.00 Build 0)  -->
<svg version="1.1"
	 id="Capa_1" xmlns:cc="http://creativecommons.org/ns#" xmlns:dc="http://purl.org/dc/elements/1.1/" xmlns:inkscape="http://www.inkscape.org/namespaces/inkscape" xmlns:rdf="http://www.w3.org/1999/02/22-rdf-syntax-ns#" xmlns:sodipodi="http://sodipodi.sourceforge.net/DTD/sodipodi-0.dtd" xmlns:svg="http://www.w3.org/2000/svg"
	 xmlns="http://www.w3.org/2000/svg" xmlns:xlink="http://www.w3.org/1999/xlink" x="0px" y="0px" viewBox="0 0 471.7 471.7"
	 style="enable-background:new 0 0 471.7 471.7;" xml:space="preserve">
<style type="text/css">
	.st0{fill:#C1B096;}
</style>
<sodipodi:namedview  bordercolor="#666666" borderopacity="1" gridtolerance="10" guidetolerance="10" id="namedview5" inkscape:current-layer="Capa_1" inkscape:cx="-124.80175" inkscape:cy="175.68474" inkscape:pageopacity="0" inkscape:pageshadow="2" inkscape:window-height="1053" inkscape:window-maximized="1" inkscape:window-width="1920" inkscape:window-x="1920" inkscape:window-y="27" inkscape:zoom="1.044859" objecttolerance="10" pagecolor="#ffffff" showgrid="false">
	</sodipodi:namedview>
<path id="path2" inkscape:connector-curvature="0" sodipodi:nodetypes="ssscssscssscccs" class="st0" d="M433.6,67
	c-24.7-24.7-57.4-38.2-92.3-38.2s-67.7,13.6-92.4,38.3L236,80l-13.1-13.1c-24.7-24.7-57.6-38.4-92.5-38.4
	c-34.8,0-67.6,13.6-92.2,38.2C13.5,91.4-0.1,124.2,0,159.1c0,34.9,13.7,67.6,38.4,92.3l187.8,187.8c2.6,2.6,6.1,4,9.5,4
	s6.9-1.3,9.5-3.9l188.2-187.5c24.7-24.7,38.3-57.5,38.3-92.4C471.8,124.5,458.3,91.7,433.6,67L433.6,67z"/>
</svg>
