<?xml version="1.0" encoding="utf-8"?>
<!-- Generator: Adobe Illustrator 24.0.3, SVG Export Plug-In . SVG Version: 6.00 Build 0)  -->
<svg version="1.1" id="Layer_1" xmlns="http://www.w3.org/2000/svg" xmlns:xlink="http://www.w3.org/1999/xlink" x="0px" y="0px"
	 viewBox="0 0 310 310" style="enable-background:new 0 0 310 310;" xml:space="preserve">
<style type="text/css">
	.st0{fill:#FFFFFF;}
</style>
<g id="XMLID_798_">
	<path id="XMLID_799_" class="st0" d="M245.3,31.8C223.9,11.3,194.4,0,162.1,0c-49.3,0-79.7,20.2-96.4,37.2
		C45,58.1,33.2,85.8,33.2,113.3c0,34.5,14.4,61,38.6,70.9c1.6,0.7,3.3,1,4.9,1c5.1,0,9.1-3.3,10.5-8.7c0.8-3.1,2.7-10.6,3.5-13.9
		c1.8-6.5,0.3-9.6-3.5-14.1c-7-8.3-10.2-18.1-10.2-30.8c0-37.8,28.2-78,80.4-78c41.4,0,67.1,23.5,67.1,61.4
		c0,23.9-5.1,46.1-14.5,62.3c-6.5,11.3-17.9,24.8-35.5,24.8c-7.6,0-14.4-3.1-18.7-8.6c-4.1-5.1-5.4-11.8-3.8-18.7
		c1.8-7.8,4.4-16,6.8-23.8c4.4-14.4,8.6-28,8.6-38.8c0-18.6-11.4-31-28.4-31c-21.6,0-38.5,21.9-38.5,49.9c0,13.7,3.6,24,5.3,27.9
		c-2.7,11.5-18.9,80-21.9,92.9c-1.8,7.5-12.4,67,5.2,71.8c19.8,5.3,37.6-52.6,39.4-59.2c1.5-5.3,6.6-25.5,9.7-37.8
		c9.6,9.2,25,15.5,40,15.5c28.3,0,53.7-12.7,71.6-35.8c17.4-22.4,26.9-53.7,26.9-88C276.9,77.5,265.3,51.1,245.3,31.8z"/>
</g>
</svg>
