<?xml version="1.0" encoding="utf-8"?>
<!-- Generator: Adobe Illustrator 24.0.3, SVG Export Plug-In . SVG Version: 6.00 Build 0)  -->
<svg version="1.1" id="Capa_1" xmlns="http://www.w3.org/2000/svg" xmlns:xlink="http://www.w3.org/1999/xlink" x="0px" y="0px"
	 viewBox="0 0 512 512" style="enable-background:new 0 0 512 512;" xml:space="preserve">
<g>
	<path d="M484.6,65.6H189.1C181,40.9,158.1,23,131.3,23S81.7,40.9,73.5,65.6H27.4C16.7,65.6,8,74.5,8,85.5s8.7,19.9,19.4,19.9h46.1
		c8.1,24.7,30.9,42.6,57.8,42.6s49.7-17.9,57.8-42.6h295.5c10.7,0,19.4-8.9,19.4-19.9S495.3,65.6,484.6,65.6z M131.3,108.2
		c-12.2,0-22.2-10.2-22.2-22.7s9.9-22.7,22.2-22.7s22.2,10.2,22.2,22.7C153.5,98,143.5,108.2,131.3,108.2z"/>
	<path d="M484.6,236.1h-46.1c-8.1-24.7-30.9-42.6-57.8-42.6c-26.8,0-49.7,17.9-57.8,42.6H27.4C16.7,236.1,8,245,8,256
		s8.7,19.9,19.4,19.9h295.5c8.1,24.7,30.9,42.6,57.8,42.6c26.8,0,49.7-17.9,57.8-42.6h46.1c10.7,0,19.4-8.9,19.4-19.9
		S495.3,236.1,484.6,236.1z M380.7,278.7c-12.2,0-22.2-10.2-22.2-22.7s9.9-22.7,22.2-22.7s22.2,10.2,22.2,22.7
		S392.9,278.7,380.7,278.7z"/>
	<path d="M484.6,406.6H272.2c-8.1-24.7-30.9-42.6-57.8-42.6s-49.7,17.9-57.8,42.6H27.4c-10.7,0-19.4,8.9-19.4,19.9
		s8.7,19.9,19.4,19.9h129.3c8.1,24.7,30.9,42.6,57.8,42.6s49.7-17.9,57.8-42.6h212.4c10.7,0,19.4-8.9,19.4-19.9
		S495.3,406.6,484.6,406.6z M214.4,449.2c-12.2,0-22.2-10.2-22.2-22.7s9.9-22.7,22.2-22.7s22.2,10.2,22.2,22.7
		C236.6,439,226.7,449.2,214.4,449.2z"/>
</g>
</svg>
