<?xml version="1.0" encoding="utf-8"?>
<!-- Generator: Adobe Illustrator 24.0.3, SVG Export Plug-In . SVG Version: 6.00 Build 0)  -->
<svg version="1.1"
	 id="Livello_1" xmlns:cc="http://creativecommons.org/ns#" xmlns:dc="http://purl.org/dc/elements/1.1/" xmlns:inkscape="http://www.inkscape.org/namespaces/inkscape" xmlns:rdf="http://www.w3.org/1999/02/22-rdf-syntax-ns#" xmlns:sodipodi="http://sodipodi.sourceforge.net/DTD/sodipodi-0.dtd" xmlns:svg="http://www.w3.org/2000/svg"
	 xmlns="http://www.w3.org/2000/svg" xmlns:xlink="http://www.w3.org/1999/xlink" x="0px" y="0px" viewBox="0 0 573.4 118.6"
	 style="enable-background:new 0 0 573.4 118.6;" xml:space="preserve">
<style type="text/css">
	.st0{fill:#DEBF7B;}
</style>
<sodipodi:namedview  bordercolor="#666666" borderopacity="1" fit-margin-bottom="0" fit-margin-left="0" fit-margin-right="0" fit-margin-top="0" gridtolerance="10" guidetolerance="10" id="namedview17" inkscape:current-layer="Livello_1" inkscape:cx="-49.358601" inkscape:cy="30.649985" inkscape:pageopacity="0" inkscape:pageshadow="2" inkscape:window-height="504" inkscape:window-maximized="0" inkscape:window-width="1646" inkscape:window-x="2444" inkscape:window-y="349" inkscape:zoom="0.598637" objecttolerance="10" pagecolor="#ffffff" showgrid="false">
	</sodipodi:namedview>
<path id="path2" inkscape:connector-curvature="0" d="M181.3,39.6c2.8,0,5.1,0.3,7.1,1.2c2,0.9,3.5,1.9,4.7,3.1
	c1.2,1.2,2.1,2.8,2.6,4.5c0.5,1.6,0.9,3.5,0.9,5.3c0,1.8-0.3,3.5-0.9,5.2c-0.5,1.7-1.4,3.2-2.6,4.5c-1.2,1.4-2.8,2.4-4.7,3.1
	c-2,0.9-4.2,1.2-7.1,1.2h-10.1v15.7h-9.7V39.6H181.3L181.3,39.6z M178.7,60.2c1.1,0,2.2-0.1,3.2-0.3c1-0.2,2-0.4,2.7-0.9
	c0.8-0.4,1.4-1.1,1.9-2c0.4-0.9,0.7-2,0.7-3.4s-0.3-2.5-0.7-3.4c-0.4-0.9-1.1-1.5-1.9-2c-0.8-0.4-1.6-0.8-2.7-0.9
	c-1-0.2-2.1-0.3-3.2-0.3h-7.5v13.1L178.7,60.2L178.7,60.2z"/>
<path id="path4" inkscape:connector-curvature="0" d="M222.2,72.6c0.5,1,1.3,1.9,2.1,2.5c0.9,0.7,1.9,1.1,3.1,1.4
	c1.2,0.3,2.4,0.4,3.6,0.4c0.9,0,1.8-0.1,2.8-0.3c0.9-0.2,1.9-0.4,2.8-0.9c0.9-0.3,1.6-0.9,2.2-1.7c0.6-0.8,0.9-1.6,0.9-2.7
	c0-1.2-0.3-2.2-1.1-2.9c-0.8-0.8-1.7-1.4-3-1.9c-1.3-0.5-2.6-0.9-4.2-1.3c-1.6-0.3-3.1-0.8-4.7-1.2c-1.6-0.3-3.2-0.9-4.8-1.5
	c-1.6-0.6-2.9-1.4-4.2-2.3c-1.2-0.9-2.2-2.1-3-3.5c-0.8-1.4-1.1-3.1-1.1-5.2c0-2.2,0.4-4.2,1.4-5.9c0.9-1.6,2.2-3.1,3.7-4.1
	c1.6-1.1,3.3-2,5.3-2.5c2-0.5,3.9-0.9,6-0.9c2.3,0,4.5,0.3,6.6,0.8s4,1.4,5.6,2.5s2.9,2.6,3.9,4.4c0.9,1.8,1.4,4,1.4,6.5h-9.1
	c-0.1-1.4-0.3-2.4-0.9-3.2c-0.4-0.9-1.1-1.5-1.9-2s-1.6-0.9-2.7-1c-0.9-0.3-2.1-0.3-3.3-0.3c-0.8,0-1.6,0.1-2.3,0.3
	c-0.8,0.2-1.5,0.4-2.1,0.9c-0.7,0.3-1.1,0.9-1.6,1.5c-0.3,0.6-0.6,1.4-0.6,2.3c0,0.9,0.2,1.6,0.5,2.1c0.3,0.5,0.9,1,2,1.5
	c0.9,0.4,2.3,0.9,4,1.4c1.7,0.4,3.9,1,6.6,1.7c0.9,0.2,2,0.4,3.4,0.9c1.4,0.4,2.9,1.1,4.3,2.1c1.4,0.9,2.7,2.2,3.7,3.7
	c1,1.6,1.6,3.6,1.6,6c0,2-0.3,3.9-1.2,5.6c-0.8,1.7-2,3.2-3.5,4.5c-1.6,1.3-3.5,2.2-5.7,2.9c-2.2,0.7-4.8,1-7.9,1
	c-2.4,0-4.8-0.3-7.1-0.9c-2.2-0.6-4.2-1.5-6-2.8c-1.7-1.3-3.1-2.9-4.1-4.8c-1-2-1.5-4.2-1.5-7.1h9.3
	C221.3,70.3,221.6,71.6,222.2,72.6L222.2,72.6z"/>
<path id="path6" inkscape:connector-curvature="0" d="M262.1,39.6h10.8l10.3,17.3l10.2-17.3h10.8l-16.2,27v16.8h-9.7V66.3
	L262.1,39.6z"/>
<path id="path8" inkscape:connector-curvature="0" d="M329.7,39.6v18.2l17.2-18.2H359l-17.2,17.3l18.8,26.5h-12.2l-13.2-19.7
	l-5.5,5.6v14.2h-9.7V39.6H329.7z"/>
<path id="path10" inkscape:connector-curvature="0" d="M386.3,39.6v16.8h17.8V39.6h9.7v43.8h-9.7V64.5h-17.8v18.9h-9.7V39.6H386.3z"
	/>
<path id="path12" inkscape:connector-curvature="0" d="M467.3,39.6v8.1h-23.1V57h21.2v7.5h-21.2v10.9h23.6v8.1h-33.3V39.6H467.3
	L467.3,39.6z"/>
<path id="path22" inkscape:connector-curvature="0" d="M55.8,7.7c-0.1-0.5-0.2-1.1-0.2-1.6c0-0.1,0-0.1,0-0.2
	C35.8,9,19.5,22.6,12.5,40.8c0.6,0.1,1.2,0.2,1.8,0.4C21.1,23.8,36.8,10.7,55.8,7.7z"/>
<path id="path24" inkscape:connector-curvature="0" d="M21.4,92.8c-5.9-7.8-9.7-17.3-10.6-27.6c-0.1,0-0.3,0-0.4,0
	c-0.5,0-1,0-1.4-0.1c0.9,10.9,4.9,20.8,11.1,29C20.6,93.6,21,93.2,21.4,92.8z"/>
<path id="path26" inkscape:connector-curvature="0" d="M72.8,7.7c18.4,3,33.6,15.3,40.8,31.9c0.6-0.2,1.2-0.4,1.8-0.5
	C108,21.8,92.1,8.9,73,5.9C73,6,73,6,73,6.1C73,6.6,72.9,7.2,72.8,7.7z"/>
<path id="path28" inkscape:connector-curvature="0" d="M119.4,67c-0.4,0-0.8,0.1-1.3,0.1c-0.2,0-0.4,0-0.6,0
	c-1.5,12.7-7.5,24-16.3,32.4c0.4,0.4,0.8,0.9,1.1,1.5C111.6,92.2,117.8,80.3,119.4,67z"/>
<path id="path30" inkscape:connector-curvature="0" d="M64.3,114.2c-5.4,0-10.7-0.8-15.7-2.3c-0.2,0.6-0.5,1.1-0.8,1.7
	c5.2,1.6,10.7,2.5,16.4,2.5c8.5,0,16.6-1.9,23.7-5.4c-0.4-0.5-0.7-1-1-1.6C80.2,112.4,72.4,114.2,64.3,114.2z"/>
<path id="path32" inkscape:connector-curvature="0" class="st0" d="M69,5.7c0,0.5-0.1,0.9-0.2,1.3c-0.6,1.9-2.3,3.3-4.5,3.3
	c-2.1,0-3.9-1.4-4.5-3.3c-0.1-0.4-0.2-0.9-0.2-1.3s0-0.7,0.1-1C60.2,2.5,62.1,1,64.3,1c2.2,0,4.1,1.5,4.5,3.6C68.9,5,69,5.3,69,5.7z
	"/>
<path id="path34" inkscape:connector-curvature="0" class="st0" d="M99.3,105.6c0,2.6-2.1,4.7-4.7,4.7c-1.1,0-2.1-0.4-2.9-1.1
	c-0.6-0.5-1.1-1.2-1.4-1.9c-0.2-0.5-0.3-1.1-0.3-1.7c0-2.6,2.1-4.7,4.7-4.7c1.2,0,2.3,0.5,3.1,1.2c0.6,0.5,1,1.2,1.3,2
	C99.2,104.6,99.3,105,99.3,105.6z"/>
<path id="path36" inkscape:connector-curvature="0" class="st0" d="M125.4,53.9c0,3.5-2.3,6.4-5.5,7.3c-0.7,0.2-1.4,0.3-2.1,0.3
	c-0.1,0-0.2,0-0.3,0c-4.1-0.2-7.3-3.5-7.3-7.6c0-3.4,2.2-6.2,5.2-7.2c0.8-0.2,1.5-0.4,2.3-0.4l0,0C122.1,46.3,125.4,49.7,125.4,53.9
	z"/>
<path id="path38" inkscape:connector-curvature="0" class="st0" d="M42.7,105.6c0,1.2-0.2,2.3-0.7,3.4c-0.3,0.7-0.7,1.4-1.2,2
	c-1.7,2.3-4.3,3.7-7.3,3.7c-5.1,0-9.2-4.1-9.2-9.1c0-1.9,0.6-3.6,1.5-5c0.5-0.7,1-1.3,1.6-1.8c1.6-1.4,3.7-2.3,6.1-2.3
	C38.6,96.4,42.7,100.5,42.7,105.6z"/>
<path id="path40" inkscape:connector-curvature="0" class="st0" d="M16.8,53.2c0,3.5-2.8,6.4-6.3,6.6c-0.1,0-0.2,0-0.3,0
	c-0.7,0-1.4-0.2-2-0.4c-2.6-0.9-4.6-3.3-4.6-6.3c0-3.6,2.9-6.5,6.4-6.6c0.1,0,0.1,0,0.2,0c0.8,0,1.5,0.2,2.2,0.4
	C15,47.9,16.8,50.3,16.8,53.2z"/>
<path id="path2_1_" inkscape:connector-curvature="0" d="M70.3,39.6c2.8,0,5.1,0.3,7.1,1.2c2,0.9,3.5,1.9,4.7,3.1
	c1.2,1.3,2.1,2.8,2.6,4.5c0.5,1.6,0.9,3.5,0.9,5.3c0,1.8-0.3,3.5-0.9,5.2c-0.5,1.7-1.4,3.2-2.6,4.5c-1.2,1.4-2.8,2.4-4.7,3.1
	c-2,0.9-4.2,1.2-7.1,1.2H60.2v15.7h-9.7V39.6H70.3L70.3,39.6z M67.7,60.3c1.1,0,2.2-0.1,3.2-0.3c1-0.2,2-0.4,2.7-0.9
	c0.8-0.4,1.4-1.1,1.9-2c0.4-0.9,0.7-2,0.7-3.4c0-1.4-0.3-2.5-0.7-3.4c-0.4-0.9-1.1-1.5-1.9-2c-0.8-0.4-1.6-0.8-2.7-0.9
	c-1-0.2-2.1-0.3-3.2-0.3h-7.5v13.1L67.7,60.3L67.7,60.3z"/>
</svg>
