<?xml version="1.0" encoding="UTF-8" standalone="no"?>
<!-- Generator: Adobe Illustrator 23.0.6, SVG Export Plug-In . SVG Version: 6.00 Build 0)  -->

<svg
   xmlns:dc="http://purl.org/dc/elements/1.1/"
   xmlns:cc="http://creativecommons.org/ns#"
   xmlns:rdf="http://www.w3.org/1999/02/22-rdf-syntax-ns#"
   xmlns:svg="http://www.w3.org/2000/svg"
   xmlns="http://www.w3.org/2000/svg"
   xmlns:sodipodi="http://sodipodi.sourceforge.net/DTD/sodipodi-0.dtd"
   xmlns:inkscape="http://www.inkscape.org/namespaces/inkscape"
   version="1.1"
   id="Livello_1"
   x="0px"
   y="0px"
   viewBox="0 0 263.52 62.630002"
   xml:space="preserve"
   sodipodi:docname="psykhe.svg"
   width="263.51999"
   height="62.630001"
   inkscape:version="0.92.3 (2405546, 2018-03-11)"><metadata
   id="metadata51"><rdf:RDF><cc:Work
       rdf:about=""><dc:format>image/svg+xml</dc:format><dc:type
         rdf:resource="http://purl.org/dc/dcmitype/StillImage" /><dc:title></dc:title></cc:Work></rdf:RDF></metadata><defs
   id="defs49" /><sodipodi:namedview
   pagecolor="#ffffff"
   bordercolor="#666666"
   borderopacity="1"
   objecttolerance="10"
   gridtolerance="10"
   guidetolerance="10"
   inkscape:pageopacity="0"
   inkscape:pageshadow="2"
   inkscape:window-width="787"
   inkscape:window-height="480"
   id="namedview47"
   showgrid="false"
   fit-margin-top="0"
   fit-margin-left="0"
   fit-margin-right="0"
   fit-margin-bottom="0"
   inkscape:zoom="1.3730817"
   inkscape:cx="44.859351"
   inkscape:cy="30.810001"
   inkscape:window-x="2512"
   inkscape:window-y="323"
   inkscape:window-maximized="0"
   inkscape:current-layer="Livello_1" />
<style
   type="text/css"
   id="style2">
	.st0{fill:none;}
	.st1{fill:#DEBF7B;}
</style>
<g
   id="g16"
   transform="translate(-10.96,-9.23)">
	<path
   d="m 105.22,28.35 c 1.62,0 3,0.23 4.14,0.71 1.14,0.47 2.06,1.09 2.77,1.87 0.71,0.77 1.23,1.66 1.56,2.65 0.33,0.99 0.49,2.02 0.49,3.08 0,1.04 -0.16,2.06 -0.49,3.06 -0.33,1 -0.85,1.89 -1.56,2.67 -0.71,0.77 -1.64,1.4 -2.77,1.87 -1.14,0.47 -2.52,0.71 -4.14,0.71 h -5.99 v 9.29 h -5.69 v -25.9 h 11.68 z m -1.56,12.18 c 0.65,0 1.28,-0.05 1.89,-0.14 0.61,-0.1 1.14,-0.28 1.6,-0.56 0.46,-0.28 0.83,-0.67 1.11,-1.18 0.28,-0.51 0.42,-1.17 0.42,-1.99 0,-0.82 -0.14,-1.49 -0.42,-2 -0.28,-0.51 -0.65,-0.9 -1.11,-1.18 -0.46,-0.28 -0.99,-0.46 -1.6,-0.56 -0.6,-0.1 -1.23,-0.14 -1.89,-0.14 h -4.43 v 7.76 h 4.43 z"
   id="path4"
   inkscape:connector-curvature="0" />
	<path
   d="m 129.34,47.86 c 0.31,0.6 0.73,1.09 1.25,1.47 0.52,0.37 1.13,0.65 1.83,0.83 0.7,0.18 1.43,0.27 2.18,0.27 0.51,0 1.05,-0.04 1.63,-0.13 0.58,-0.09 1.13,-0.25 1.64,-0.49 0.51,-0.24 0.93,-0.57 1.27,-1 0.34,-0.42 0.51,-0.96 0.51,-1.61 0,-0.7 -0.22,-1.27 -0.67,-1.7 -0.45,-0.44 -1.03,-0.8 -1.76,-1.09 -0.73,-0.29 -1.55,-0.54 -2.46,-0.76 -0.92,-0.22 -1.85,-0.46 -2.8,-0.73 -0.97,-0.24 -1.91,-0.54 -2.83,-0.89 -0.92,-0.35 -1.74,-0.8 -2.47,-1.36 -0.72,-0.56 -1.31,-1.25 -1.76,-2.09 -0.45,-0.83 -0.67,-1.84 -0.67,-3.03 0,-1.33 0.28,-2.48 0.85,-3.46 0.57,-0.98 1.31,-1.79 2.23,-2.45 0.92,-0.65 1.96,-1.14 3.12,-1.45 1.16,-0.31 2.32,-0.47 3.48,-0.47 1.35,0 2.65,0.15 3.9,0.45 1.25,0.3 2.35,0.79 3.32,1.47 0.97,0.68 1.73,1.54 2.3,2.59 0.57,1.05 0.85,2.33 0.85,3.83 h -5.51 c -0.05,-0.77 -0.21,-1.41 -0.49,-1.92 -0.28,-0.51 -0.65,-0.91 -1.11,-1.2 -0.46,-0.29 -0.99,-0.5 -1.58,-0.62 -0.59,-0.12 -1.24,-0.18 -1.94,-0.18 -0.46,0 -0.92,0.05 -1.38,0.15 -0.46,0.1 -0.88,0.27 -1.25,0.51 -0.38,0.24 -0.68,0.54 -0.93,0.91 -0.24,0.36 -0.36,0.82 -0.36,1.38 0,0.51 0.1,0.92 0.29,1.23 0.19,0.32 0.57,0.61 1.14,0.87 0.57,0.27 1.35,0.53 2.36,0.8 1.01,0.27 2.32,0.61 3.94,1.02 0.48,0.1 1.16,0.27 2.01,0.53 0.86,0.25 1.71,0.66 2.56,1.22 0.85,0.56 1.58,1.3 2.2,2.23 0.62,0.93 0.93,2.12 0.93,3.57 0,1.19 -0.23,2.28 -0.69,3.3 -0.46,1.02 -1.14,1.89 -2.05,2.63 -0.91,0.74 -2.03,1.31 -3.37,1.72 -1.34,0.41 -2.9,0.62 -4.66,0.62 -1.43,0 -2.81,-0.18 -4.15,-0.53 -1.34,-0.35 -2.53,-0.9 -3.55,-1.65 -1.03,-0.75 -1.85,-1.7 -2.45,-2.87 -0.61,-1.16 -0.9,-2.54 -0.87,-4.14 h 5.51 c -0.01,0.88 0.15,1.62 0.46,2.22 z"
   id="path6"
   inkscape:connector-curvature="0" />
	<path
   d="m 153,28.35 h 6.38 l 6.06,10.23 6.02,-10.23 h 6.35 l -9.61,15.96 v 9.94 h -5.69 V 44.16 Z"
   id="path8"
   inkscape:connector-curvature="0" />
	<path
   d="m 192.93,28.35 v 10.74 l 10.12,-10.74 h 7.11 l -10.12,10.23 11.1,15.67 H 204 l -7.8,-11.64 -3.26,3.3 v 8.34 h -5.69 v -25.9 z"
   id="path10"
   inkscape:connector-curvature="0" />
	<path
   d="m 226.38,28.35 v 9.94 h 10.48 v -9.94 h 5.7 v 25.9 h -5.7 V 43.07 h -10.48 v 11.17 h -5.69 v -25.9 h 5.69 z"
   id="path12"
   inkscape:connector-curvature="0" />
	<path
   d="m 274.19,28.35 v 4.79 h -13.68 v 5.55 h 12.55 v 4.43 h -12.55 v 6.35 h 13.97 v 4.79 h -19.66 v -25.9 h 19.37 z"
   id="path14"
   inkscape:connector-curvature="0" />
</g>
<g
   id="g44"
   transform="translate(-10.96,-9.23)">
	<path
   class="st0"
   d="m 56.05,39.7 c -0.33,1 -0.85,1.89 -1.56,2.67 -0.71,0.77 -1.64,1.4 -2.77,1.87 -1.14,0.47 -2.52,0.71 -4.14,0.71 h -5.99 v 9.29 H 35.9 v -25.9 h 11.68 c 1.62,0 3,0.23 4.14,0.71 1.14,0.47 2.06,1.09 2.77,1.87 0.71,0.77 1.23,1.66 1.56,2.65 0.33,0.99 0.49,2.02 0.49,3.08 -0.01,1.02 -0.17,2.05 -0.49,3.05 z"
   id="path18"
   inkscape:connector-curvature="0"
   style="fill:none" />
	<path
   class="st0"
   d="M 49.5,33.46 C 49.04,33.18 48.51,33 47.9,32.9 47.3,32.8 46.67,32.76 46.01,32.76 h -4.43 v 7.76 h 4.43 c 0.65,0 1.28,-0.05 1.89,-0.14 0.61,-0.1 1.14,-0.28 1.6,-0.56 0.46,-0.28 0.83,-0.67 1.11,-1.18 0.28,-0.51 0.42,-1.17 0.42,-1.99 0,-0.82 -0.14,-1.49 -0.42,-2 -0.28,-0.52 -0.65,-0.91 -1.11,-1.19 z"
   id="path20"
   inkscape:connector-curvature="0"
   style="fill:none" />
	<path
   d="m 38.72,12.08 c -0.05,-0.29 -0.09,-0.58 -0.09,-0.88 0,-0.04 0.01,-0.08 0.01,-0.12 -10.91,1.72 -19.92,9.24 -23.77,19.29 0.34,0.06 0.66,0.13 0.98,0.24 3.75,-9.65 12.39,-16.85 22.87,-18.53 z"
   id="path22"
   inkscape:connector-curvature="0" />
	<path
   d="m 19.78,59.03 c -3.24,-4.31 -5.33,-9.53 -5.82,-15.2 -0.07,0 -0.14,0.01 -0.21,0.01 -0.27,0 -0.53,-0.02 -0.79,-0.05 0.49,5.96 2.69,11.45 6.11,15.95 0.23,-0.25 0.46,-0.49 0.71,-0.71 z"
   id="path24"
   inkscape:connector-curvature="0" />
	<path
   d="m 48.14,12.08 c 10.13,1.63 18.56,8.42 22.49,17.59 0.32,-0.11 0.64,-0.2 0.98,-0.26 -4.05,-9.57 -12.83,-16.66 -23.39,-18.33 0,0.04 0.01,0.08 0.01,0.12 0,0.3 -0.04,0.59 -0.09,0.88 z"
   id="path26"
   inkscape:connector-curvature="0" />
	<path
   d="m 73.8,44.81 c -0.23,0.02 -0.45,0.03 -0.69,0.03 -0.11,0 -0.22,-0.01 -0.32,-0.02 -0.84,7 -4.13,13.25 -8.99,17.87 0.23,0.24 0.43,0.51 0.61,0.8 5.09,-4.81 8.54,-11.35 9.39,-18.68 z"
   id="path28"
   inkscape:connector-curvature="0" />
	<path
   d="m 43.43,70.86 c -3,0 -5.9,-0.45 -8.64,-1.29 -0.13,0.31 -0.27,0.62 -0.43,0.92 2.87,0.89 5.91,1.37 9.07,1.37 4.69,0 9.13,-1.06 13.1,-2.96 -0.2,-0.27 -0.38,-0.55 -0.53,-0.86 -3.81,1.81 -8.08,2.82 -12.57,2.82 z"
   id="path30"
   inkscape:connector-curvature="0" />
	<path
   class="st1"
   d="m 45.4,11.2 c 0,0.2 -0.04,0.38 -0.09,0.56 -0.25,0.81 -0.99,1.41 -1.88,1.41 -0.89,0 -1.64,-0.6 -1.88,-1.41 -0.06,-0.18 -0.09,-0.36 -0.09,-0.56 0,-0.15 0.02,-0.3 0.05,-0.44 0.2,-0.88 0.98,-1.53 1.92,-1.53 0.94,0 1.72,0.65 1.92,1.53 0.03,0.14 0.05,0.29 0.05,0.44 z"
   id="path32"
   inkscape:connector-curvature="0"
   style="fill:#debf7b" />
	<path
   class="st1"
   d="m 62.31,66.01 c 0,1.09 -0.89,1.97 -1.98,1.97 -0.47,0 -0.9,-0.18 -1.24,-0.45 -0.26,-0.22 -0.47,-0.5 -0.59,-0.82 -0.09,-0.22 -0.14,-0.45 -0.14,-0.7 0,-1.09 0.89,-1.97 1.97,-1.97 0.51,0 0.97,0.19 1.32,0.51 0.25,0.23 0.44,0.51 0.55,0.84 0.06,0.2 0.11,0.4 0.11,0.62 z"
   id="path34"
   inkscape:connector-curvature="0"
   style="fill:#debf7b" />
	<path
   class="st1"
   d="m 76.31,37.05 c 0,1.46 -0.99,2.69 -2.33,3.07 -0.28,0.07 -0.57,0.13 -0.87,0.13 -0.04,0 -0.09,-0.01 -0.13,-0.01 -1.71,-0.07 -3.07,-1.47 -3.07,-3.19 0,-1.42 0.92,-2.6 2.19,-3.03 0.32,-0.1 0.64,-0.17 0.99,-0.17 0.01,0 0.01,0 0.02,0 1.77,0 3.2,1.43 3.2,3.2 z"
   id="path36"
   inkscape:connector-curvature="0"
   style="fill:#debf7b" />
	<path
   class="st1"
   d="m 29.94,66.01 c 0,0.51 -0.1,0.99 -0.28,1.44 -0.12,0.31 -0.3,0.6 -0.49,0.86 -0.71,0.95 -1.82,1.56 -3.09,1.56 -2.14,0 -3.87,-1.73 -3.87,-3.86 0,-0.79 0.24,-1.52 0.64,-2.13 0.19,-0.28 0.42,-0.53 0.67,-0.75 0.68,-0.61 1.57,-0.99 2.56,-0.99 2.13,0 3.86,1.73 3.86,3.87 z"
   id="path38"
   inkscape:connector-curvature="0"
   style="fill:#debf7b" />
	<path
   class="st1"
   d="m 16.54,37.05 c 0,1.49 -1.18,2.7 -2.65,2.77 -0.05,0 -0.09,0.02 -0.14,0.02 -0.3,0 -0.59,-0.07 -0.86,-0.15 -1.11,-0.37 -1.93,-1.41 -1.93,-2.64 0,-1.51 1.21,-2.74 2.71,-2.78 0.03,0 0.05,-0.01 0.08,-0.01 0.32,0 0.62,0.07 0.91,0.16 1.09,0.38 1.88,1.41 1.88,2.63 z"
   id="path40"
   inkscape:connector-curvature="0"
   style="fill:#debf7b" />
	<path
   d="M 54.49,30.9 C 53.78,30.13 52.85,29.5 51.72,29.03 50.58,28.56 49.2,28.32 47.58,28.32 H 35.9 v 25.9 h 5.69 v -9.29 h 5.99 c 1.62,0 3,-0.24 4.14,-0.71 1.14,-0.47 2.06,-1.09 2.77,-1.87 0.71,-0.77 1.23,-1.66 1.56,-2.67 0.33,-1 0.49,-2.03 0.49,-3.06 0,-1.06 -0.16,-2.09 -0.49,-3.08 -0.33,-0.98 -0.85,-1.86 -1.56,-2.64 z m -3.89,7.73 c -0.28,0.51 -0.65,0.9 -1.11,1.18 -0.46,0.28 -0.99,0.47 -1.6,0.56 -0.6,0.1 -1.23,0.14 -1.89,0.14 H 41.57 V 32.75 H 46 c 0.65,0 1.28,0.05 1.89,0.14 0.61,0.1 1.14,0.28 1.6,0.56 0.46,0.28 0.83,0.67 1.11,1.18 0.28,0.51 0.42,1.17 0.42,2 0,0.83 -0.14,1.49 -0.42,2 z"
   id="path42"
   inkscape:connector-curvature="0" />
</g>
</svg>
