<?xml version="1.0" encoding="UTF-8" standalone="no"?>
<!-- Generator: Adobe Illustrator 23.0.6, SVG Export Plug-In . SVG Version: 6.00 Build 0)  -->

<svg
   xmlns:dc="http://purl.org/dc/elements/1.1/"
   xmlns:cc="http://creativecommons.org/ns#"
   xmlns:rdf="http://www.w3.org/1999/02/22-rdf-syntax-ns#"
   xmlns:svg="http://www.w3.org/2000/svg"
   xmlns="http://www.w3.org/2000/svg"
   xmlns:sodipodi="http://sodipodi.sourceforge.net/DTD/sodipodi-0.dtd"
   xmlns:inkscape="http://www.inkscape.org/namespaces/inkscape"
   version="1.1"
   id="Livello_1"
   x="0px"
   y="0px"
   viewBox="0 0 409.08999 61.279996"
   xml:space="preserve"
   sodipodi:docname="Wordmark.svg"
   width="409.09"
   height="61.279999"
   inkscape:version="0.92.3 (2405546, 2018-03-11)"><metadata
   id="metadata21"><rdf:RDF><cc:Work
       rdf:about=""><dc:format>image/svg+xml</dc:format><dc:type
         rdf:resource="http://purl.org/dc/dcmitype/StillImage" /><dc:title></dc:title></cc:Work></rdf:RDF></metadata><defs
   id="defs19" /><sodipodi:namedview
   pagecolor="#ffffff"
   bordercolor="#666666"
   borderopacity="1"
   objecttolerance="10"
   gridtolerance="10"
   guidetolerance="10"
   inkscape:pageopacity="0"
   inkscape:pageshadow="2"
   inkscape:window-width="1646"
   inkscape:window-height="504"
   id="namedview17"
   showgrid="false"
   fit-margin-top="0"
   fit-margin-left="0"
   fit-margin-right="0"
   fit-margin-bottom="0"
   inkscape:zoom="0.598637"
   inkscape:cx="-49.358601"
   inkscape:cy="30.649985"
   inkscape:window-x="2444"
   inkscape:window-y="349"
   inkscape:window-maximized="0"
   inkscape:current-layer="Livello_1" />
<g
   id="g14"
   transform="translate(-216.4,-267.01)">
	<path
   d="m 242.81,268.4 c 3.66,0 6.78,0.53 9.35,1.6 2.57,1.06 4.66,2.47 6.27,4.22 1.61,1.75 2.79,3.74 3.53,5.99 0.74,2.24 1.1,4.57 1.1,6.97 0,2.35 -0.37,4.66 -1.1,6.93 -0.74,2.27 -1.92,4.28 -3.53,6.03 -1.62,1.75 -3.7,3.16 -6.27,4.22 -2.57,1.07 -5.69,1.6 -9.35,1.6 h -13.53 v 20.99 H 216.4 V 268.4 Z m -3.53,27.56 c 1.48,0 2.9,-0.11 4.26,-0.33 1.37,-0.22 2.57,-0.64 3.61,-1.27 1.04,-0.63 1.87,-1.52 2.5,-2.67 0.63,-1.15 0.94,-2.65 0.94,-4.51 0,-1.86 -0.32,-3.36 -0.94,-4.51 -0.63,-1.15 -1.46,-2.04 -2.5,-2.67 -1.04,-0.63 -2.24,-1.05 -3.61,-1.27 -1.36,-0.22 -2.79,-0.33 -4.26,-0.33 h -10 v 17.55 h 10 z"
   id="path2"
   inkscape:connector-curvature="0" />
	<path
   d="m 297.35,312.52 c 0.71,1.36 1.66,2.47 2.83,3.32 1.17,0.85 2.55,1.48 4.14,1.89 1.59,0.41 3.23,0.62 4.93,0.62 1.15,0 2.38,-0.1 3.68,-0.29 1.32,-0.19 2.55,-0.56 3.7,-1.11 1.15,-0.55 2.1,-1.3 2.87,-2.26 0.76,-0.96 1.15,-2.17 1.15,-3.65 0,-1.59 -0.51,-2.87 -1.52,-3.85 -1.01,-0.98 -2.34,-1.8 -3.98,-2.46 -1.64,-0.66 -3.5,-1.23 -5.57,-1.72 -2.08,-0.49 -4.18,-1.04 -6.32,-1.64 -2.18,-0.54 -4.31,-1.21 -6.39,-2.01 -2.08,-0.79 -3.94,-1.82 -5.58,-3.07 -1.64,-1.26 -2.96,-2.83 -3.98,-4.72 -1.01,-1.89 -1.51,-4.17 -1.51,-6.85 0,-3.01 0.64,-5.62 1.93,-7.83 1.28,-2.21 2.96,-4.06 5.05,-5.54 2.08,-1.48 4.43,-2.57 7.05,-3.28 2.63,-0.71 5.25,-1.06 7.88,-1.06 3.06,0 6,0.34 8.82,1.02 2.82,0.68 5.32,1.79 7.51,3.32 2.18,1.53 3.92,3.49 5.21,5.87 1.28,2.38 1.92,5.26 1.92,8.65 h -12.46 c -0.11,-1.75 -0.48,-3.2 -1.11,-4.34 -0.63,-1.15 -1.46,-2.05 -2.5,-2.71 -1.04,-0.66 -2.23,-1.12 -3.56,-1.39 -1.34,-0.27 -2.8,-0.41 -4.39,-0.41 -1.04,0 -2.08,0.11 -3.11,0.33 -1.04,0.22 -1.99,0.6 -2.83,1.15 -0.85,0.55 -1.55,1.23 -2.1,2.05 -0.55,0.82 -0.82,1.86 -0.82,3.12 0,1.15 0.22,2.08 0.66,2.79 0.43,0.71 1.29,1.37 2.58,1.97 1.29,0.6 3.06,1.2 5.33,1.81 2.27,0.6 5.24,1.37 8.9,2.3 1.09,0.22 2.62,0.61 4.55,1.19 1.94,0.57 3.87,1.49 5.78,2.75 1.92,1.26 3.58,2.94 4.97,5.04 1.39,2.11 2.1,4.8 2.1,8.08 0,2.68 -0.52,5.17 -1.56,7.46 -1.04,2.3 -2.58,4.28 -4.63,5.95 -2.06,1.67 -4.59,2.97 -7.63,3.89 -3.04,0.93 -6.55,1.39 -10.54,1.39 -3.23,0 -6.35,-0.4 -9.39,-1.19 -3.04,-0.79 -5.71,-2.04 -8.04,-3.73 -2.33,-1.7 -4.17,-3.85 -5.54,-6.48 -1.37,-2.62 -2.03,-5.74 -1.97,-9.35 h 12.46 c -0.04,1.95 0.32,3.62 1.03,4.98 z"
   id="path4"
   inkscape:connector-curvature="0" />
	<path
   d="m 350.82,268.4 h 14.43 l 13.7,23.13 13.62,-23.13 h 14.35 l -21.73,36.08 v 22.47 h -12.87 v -22.8 z"
   id="path6"
   inkscape:connector-curvature="0" />
	<path
   d="m 441.12,268.4 v 24.27 l 22.89,-24.27 h 16.07 l -22.88,23.13 25.1,35.43 h -16.16 l -17.63,-26.33 -7.38,7.47 v 18.86 H 428.26 V 268.4 Z"
   id="path8"
   inkscape:connector-curvature="0" />
	<path
   d="m 516.73,268.4 v 22.47 h 23.7 V 268.4 h 12.88 v 58.56 H 540.43 V 301.7 h -23.7 v 25.26 H 503.86 V 268.4 Z"
   id="path10"
   inkscape:connector-curvature="0" />
	<path
   d="m 624.83,268.4 v 10.83 h -30.92 v 12.55 h 28.38 v 10 h -28.38 v 14.35 h 31.58 v 10.83 H 581.04 V 268.4 Z"
   id="path12"
   inkscape:connector-curvature="0" />
</g>
</svg>
