<?xml version="1.0" encoding="utf-8"?>
<!-- Generator: Adobe Illustrator 24.0.3, SVG Export Plug-In . SVG Version: 6.00 Build 0)  -->
<svg version="1.1" id="Capa_1" xmlns="http://www.w3.org/2000/svg" xmlns:xlink="http://www.w3.org/1999/xlink" x="0px" y="0px"
	 viewBox="0 0 496 496" style="enable-background:new 0 0 496 496;" xml:space="preserve">
<style type="text/css">
	.st0{fill:#C2B197;}
</style>
<path class="st0" d="M496,152c0-13.2-10.8-24-24-24c-2.8,0-5.4,0.6-7.8,1.4l-35.8-44.8c2.3-3.7,3.7-8,3.7-12.6c0-13.2-10.8-24-24-24
	c-6.7,0-12.8,2.8-17.2,7.3l-63.1-29.1c0.1-0.7,0.2-1.4,0.2-2.2c0-13.2-10.8-24-24-24c-10.4,0-19.2,6.7-22.5,16h-90.9
	C187.2,6.7,178.4,0,168,0c-13.2,0-24,10.8-24,24c0,1,0.2,1.9,0.3,2.9l-39.7,19.8C100.3,42.6,94.5,40,88,40c-13.2,0-24,10.8-24,24
	c0,4.6,1.4,8.9,3.7,12.6l-35.8,44.8c-2.5-0.9-5.1-1.4-7.8-1.4c-13.2,0-24,10.8-24,24c0,10.4,6.7,19.2,16,22.5v51
	C6.7,220.8,0,229.6,0,240c0,13.2,10.8,24,24,24c8.9,0,16.6-4.9,20.7-12.1l43.7,7.9c1.8,11.4,11.7,20.2,23.6,20.2
	c0.3,0,0.6-0.1,0.9-0.1l15.3,38.2c-5,4.4-8.2,10.8-8.2,17.9c0,13.2,10.8,24,24,24c8,0,15.1-4,19.5-10.1l68.7,19.6
	c0.6,9.7,7,17.9,15.8,21v59c-9.3,3.3-16,12.1-16,22.5c0,13.2,10.8,24,24,24s24-10.8,24-24c0-10.4-6.7-19.2-16-22.5v-59
	c9.3-3.3,16-12.1,16-22.5c0-7.7-3.7-14.4-9.3-18.8l9.6-28.7l71.8,23.9c0.2,10.2,6.8,18.8,16,22.1v83c-9.3,3.3-16,12.1-16,22.5
	c0,13.2,10.8,24,24,24s24-10.8,24-24c0-10.4-6.7-19.2-16-22.5v-82.9c9.3-3.3,16-12.1,16-22.5c0-2.9-0.6-5.7-1.6-8.3l61.4-51.2
	c3.6,2.1,7.7,3.4,12.2,3.4c13.2,0,24-10.8,24-24c0-10.4-6.7-19.2-16-22.5v-67C489.3,171.2,496,162.4,496,152z M408,64
	c4.4,0,8,3.6,8,8s-3.6,8-8,8s-8-3.6-8-8S403.6,64,408,64z M396.6,93c3.4,1.9,7.2,3,11.4,3c2.8,0,5.4-0.6,7.8-1.4l35.8,44.8
	c-2.3,3.7-3.7,8-3.7,12.6c0,1.3,0.2,2.5,0.4,3.8l-56.7,30.9l-41.3-34.4c1-2.6,1.6-5.4,1.6-8.3c0-3.2-0.7-6.4-1.8-9.2L396.6,93z
	 M296,224c-3.7,0-7.2,0.9-10.3,2.4l-33.9-33.9l59.8-31c4.3,4,10,6.5,16.3,6.5c4.5,0,8.6-1.3,12.2-3.4l36.4,30.4l-64.7,35.3
	C307.7,226.4,302.1,224,296,224z M304,248c0,4.4-3.6,8-8,8s-8-3.6-8-8s3.6-8,8-8S304,243.6,304,248z M183.1,159.9l13.4,43.3
	l-68.1,35.3c-2.9-2.7-6.4-4.6-10.2-5.6l-11.1-85l54.8-2.7C165.3,153.5,173.5,159.5,183.1,159.9z M176,136c0-4.4,3.6-8,8-8s8,3.6,8,8
	s-3.6,8-8,8S176,140.4,176,136z M201.3,218.7l20.3,65.4L136,255.6c0-1-0.2-1.9-0.3-2.8L201.3,218.7z M201.2,164.6l23.8,23.8
	l-14.2,7.3L201.2,164.6z M205.6,146.3c1.5-3.1,2.4-6.6,2.4-10.3c0-3.4-0.7-6.6-2-9.6L244,91l61.2,45.9c-0.7,2.3-1.2,4.6-1.2,7.1
	c0,1.1,0.2,2.2,0.3,3.3L240,180.6L205.6,146.3z M320,144c0-4.4,3.6-8,8-8s8,3.6,8,8s-3.6,8-8,8S320,148.4,320,144z M389.8,205.9
	l57.3,47.8l-124.2-11.3L389.8,205.9z M304,16c4.4,0,8,3.6,8,8s-3.6,8-8,8s-8-3.6-8-8S299.6,16,304,16z M293,45.2
	c3.3,1.7,7,2.8,11,2.8c6.7,0,12.8-2.8,17.2-7.3l63.1,29.1c-0.1,0.7-0.2,1.4-0.2,2.2c0,3.3,0.7,6.4,1.8,9.2L339.4,123
	c-3.4-1.9-7.2-3-11.4-3c-4.9,0-9.5,1.5-13.3,4l-58.9-44.2L293,45.2z M281.5,32c0.2,0.5,0.3,1.1,0.5,1.6l-39.2,36.6L192,32H281.5z
	 M168,16c4.4,0,8,3.6,8,8s-3.6,8-8,8s-8-3.6-8-8S163.6,16,168,16z M112,64c0-1-0.2-1.9-0.3-2.9l39.7-19.8c4.3,4.2,10.2,6.7,16.6,6.7
	c4.9,0,9.5-1.5,13.3-4L231,81.2l-36,33.6c-3.3-1.7-7-2.8-11-2.8c-10.8,0-19.9,7.3-22.9,17.1l-56.2,2.8l-6.1-46.6
	C106.6,81.3,112,73.3,112,64z M88,56c4.4,0,8,3.6,8,8s-3.6,8-8,8s-8-3.6-8-8S83.6,56,88,56z M80.2,86.6c0.9,0.3,1.8,0.7,2.8,0.9
	l5.9,45.3l-42.7,2.1c-0.5-1.2-1.2-2.4-1.8-3.5L80.2,86.6z M24,136c4.4,0,8,3.6,8,8s-3.6,8-8,8s-8-3.6-8-8S19.6,136,24,136z M24,248
	c-4.4,0-8-3.6-8-8s3.6-8,8-8s8,3.6,8,8S28.4,248,24,248z M91.3,244.1l-43.7-7.9c-1.4-8.7-7.5-15.8-15.6-18.7v-51
	c7.1-2.6,12.7-8.4,14.9-15.7l44.1-2.2l11.2,85.5C97.5,236.3,93.8,239.8,91.3,244.1z M112,264c-4.4,0-8-3.6-8-8c0-4.4,3.6-8,8-8
	s8,3.6,8,8C120,260.4,116.4,264,112,264z M144,344c-4.4,0-8-3.6-8-8s3.6-8,8-8s8,3.6,8,8S148.4,344,144,344z M236.5,354.1
	l-68.7-19.6C167.1,322,156.7,312,144,312c-0.3,0-0.6,0.1-0.9,0.1l-15.3-38.2c1.1-1,2.1-2.1,3-3.2l96.6,32.2l14.3,46
	C239.7,350.3,238,352.1,236.5,354.1z M256,480c-4.4,0-8-3.6-8-8s3.6-8,8-8c4.4,0,8,3.6,8,8S260.4,480,256,480z M256,376
	c-4.4,0-8-3.6-8-8s3.6-8,8-8c4.4,0,8,3.6,8,8S260.4,376,256,376z M256.3,341.9l-10.2-32.8l19,6.3L256.3,341.9z M270.1,300.3
	l-29.9-10l-24.5-79.1l21.2-11l37.5,37.5c-1.5,3.1-2.4,6.6-2.4,10.3c0,7.7,3.7,14.4,9.3,18.8L270.1,300.3z M376,480c-4.4,0-8-3.6-8-8
	s3.6-8,8-8s8,3.6,8,8S380.4,480,376,480z M376,352c-4.4,0-8-3.6-8-8s3.6-8,8-8s8,3.6,8,8S380.4,352,376,352z M388.2,323.4
	c-3.6-2.1-7.7-3.4-12.2-3.4c-7.7,0-14.4,3.7-18.8,9.3l-71.9-24l11.1-33.4c9.5-0.2,17.5-5.8,21.3-13.9l131.1,11.9
	c0.2,0.8,0.4,1.6,0.7,2.4L388.2,323.4z M404.9,197.7l51.1-27.9c2.3,2.1,5,3.7,7.9,4.7v67c-1.5,0.5-2.9,1.2-4.2,2L404.9,197.7z
	 M472,272c-4.4,0-8-3.6-8-8s3.6-8,8-8s8,3.6,8,8S476.4,272,472,272z M472,160c-4.4,0-8-3.6-8-8s3.6-8,8-8s8,3.6,8,8
	S476.4,160,472,160z"/>
</svg>
