<?xml version="1.0" encoding="utf-8"?>
<!-- Generator: Adobe Illustrator 24.0.3, SVG Export Plug-In . SVG Version: 6.00 Build 0)  -->
<svg version="1.1" id="Layer_1" xmlns="http://www.w3.org/2000/svg" xmlns:xlink="http://www.w3.org/1999/xlink" x="0px" y="0px"
	 viewBox="0 0 128 128" style="enable-background:new 0 0 128 128;" xml:space="preserve">
<style type="text/css">
	.st0{display:none;fill:#C2B197;}
	.st1{fill:#C2B197;}
	.st2{fill:#FFFFFF;}
</style>
<polygon id="XMLID_113_" class="st0" points="104.7,46.9 99.9,46.9 99.9,33.3 92.6,44.7 88.6,42.1 95.2,31.9 84.5,37.7 82.2,33.6 
	93,27.6 80.7,27.6 80.7,22.8 94.2,22.8 82.8,15.5 85.4,11.5 95.7,18.1 89.8,7.4 94,5.1 99.9,15.9 99.9,3.6 104.7,3.6 104.7,17.1 
	112.1,5.7 116.1,8.3 109.5,18.6 120.2,12.7 122.5,16.9 111.6,22.8 124,22.8 124,27.6 110.4,27.6 121.8,35 119.2,39 109,32.4 
	114.8,43.1 110.7,45.4 104.7,34.5 "/>
<path id="XMLID_102_" class="st1" d="M100.3,50.3c-13.6,0-24.6-11.1-24.6-24.6S86.7,1,100.3,1S125,12.1,125,25.6
	S113.9,50.3,100.3,50.3z M100.3,5.8c-11,0-19.9,8.9-19.9,19.9s8.9,19.9,19.9,19.9s19.9-8.9,19.9-19.9S111.3,5.8,100.3,5.8z"/>
<rect x="66.8" y="17.3" class="st2" width="36.9" height="5"/>
<rect x="70.4" y="44.6" transform="matrix(0.7071 -0.7071 0.7071 0.7071 -7.3175 76.6287)" class="st2" width="36.9" height="5"/>
<rect x="71.9" y="20.4" class="st2" width="19.9" height="24.1"/>
<path id="XMLID_54_" class="st1" d="M103.5,29c1.1-1.1,1.5-2.8,0.9-4.3c-0.6-1.5-2.1-2.5-3.7-2.5L5,22.3c-1.6,0-3.1,1-3.7,2.5
	c-0.6,1.5-0.3,3.2,0.9,4.3l48.3,48.3v45.9H29c-1.3,0-2.4,1.1-2.4,2.4s1.1,2.4,2.4,2.4h47.7c1.3,0,2.4-1.1,2.4-2.4s-1.1-2.4-2.4-2.4
	H55.3V77.3L103.5,29z M98.8,27L85.3,40.5H20.4L6.9,27L98.8,27z M52.9,73L23.6,43.7h58.6L52.9,73z"/>
</svg>
