<?xml version="1.0" encoding="utf-8"?>
<!-- Generator: Adobe Illustrator 24.0.3, SVG Export Plug-In . SVG Version: 6.00 Build 0)  -->
<svg version="1.1" id="Capa_1" xmlns="http://www.w3.org/2000/svg" xmlns:xlink="http://www.w3.org/1999/xlink" x="0px" y="0px"
	 viewBox="0 0 368 368" style="enable-background:new 0 0 368 368;" xml:space="preserve">
<style type="text/css">
	.st0{fill:#C2B197;}
</style>
<g>
	<g>
		<g>
			<path class="st0" d="M261.3,258c-3.3-3-8.4-2.7-11.3,0.6c-16.7,18.6-40.8,29.3-66,29.3s-49.4-10.7-66-29.3
				c-2.9-3.3-8-3.6-11.3-0.6c-3.3,2.9-3.6,8-0.6,11.3c19.7,22,48.1,34.7,78,34.7c29.8,0,58.2-12.6,78-34.7
				C264.9,266,264.6,261,261.3,258z"/>
			<path class="st0" d="M344,80h-8.3C301.3,29.9,245,0,184,0C123,0,66.7,29.9,32.3,80H24C10.8,80,0,90.8,0,104v80
				c0,101.5,82.5,184,184,184c101.5,0,184-82.5,184-184v-80C368,90.8,357.2,80,344,80z M184,16c51.9,0,100.1,23.7,131.9,64H52.2
				C83.9,39.7,132.1,16,184,16z M184,352c-80.9,0-148.7-57.5-164.5-133.8c6,3.6,13,5.8,20.5,5.8h80c22.1,0,40-17.9,40-40v-24h48v24
				c0,22.1,17.9,40,40,40h80c7.5,0,14.5-2.2,20.5-5.8C332.7,294.5,264.9,352,184,352z M352,184c0,13.2-10.8,24-24,24h-80
				c-13.2,0-24-10.8-24-24v-24c0-8.8-7.2-16-16-16h-48c-8.8,0-16,7.2-16,16v24c0,13.2-10.8,24-24,24H40c-13.2,0-24-10.8-24-24v-80
				c0-4.4,3.6-8,8-8h320c4.4,0,8,3.6,8,8V184z"/>
		</g>
	</g>
</g>
</svg>
