<?xml version="1.0" encoding="utf-8"?>
<!-- Generator: Adobe Illustrator 24.0.3, SVG Export Plug-In . SVG Version: 6.00 Build 0)  -->
<svg version="1.1" id="Layer_1" xmlns="http://www.w3.org/2000/svg" xmlns:xlink="http://www.w3.org/1999/xlink" x="0px" y="0px"
	 viewBox="0 0 512 512" style="enable-background:new 0 0 512 512;" xml:space="preserve">
<style type="text/css">
	.st0{fill:#C2B197;}
</style>
<g>
	<g>
		<path class="st0" d="M464,126.9L340.2,3.1c-2-2-4.6-3.1-7.4-3.1H95.7c-28,0-50.8,22.8-50.8,50.8v410.4c0,28,22.8,50.8,50.8,50.8
			h320.5c28,0,50.8-22.8,50.8-50.8v-327C467.1,131.5,466,128.8,464,126.9z M343.3,35.7l88.1,88.1h-58.2c-8,0-15.5-3.1-21.1-8.8
			c-5.6-5.6-8.8-13.1-8.8-21.1V35.7z M446.2,461.2c0,16.5-13.4,29.9-29.9,29.9H95.7c-16.5,0-29.9-13.4-29.9-29.9V50.8
			c0-16.5,13.4-29.9,29.9-29.9h226.6v73c0,13.6,5.3,26.3,14.9,35.9c9.6,9.6,22.3,14.9,35.9,14.9h73L446.2,461.2L446.2,461.2z"/>
	</g>
</g>
<g>
	<g>
		<path class="st0" d="M147.8,303.7h-4.7c-5.8,0-10.4,4.7-10.4,10.4s4.7,10.4,10.4,10.4h4.7c5.8,0,10.4-4.7,10.4-10.4
			S153.6,303.7,147.8,303.7z"/>
	</g>
</g>
<g>
	<g>
		<path class="st0" d="M368.9,303.7H181.6c-5.8,0-10.4,4.7-10.4,10.4s4.7,10.4,10.4,10.4h187.3c5.8,0,10.4-4.7,10.4-10.4
			S374.7,303.7,368.9,303.7z"/>
	</g>
</g>
<g>
	<g>
		<path class="st0" d="M147.8,256h-4.7c-5.8,0-10.4,4.7-10.4,10.4s4.7,10.4,10.4,10.4h4.7c5.8,0,10.4-4.7,10.4-10.4
			S153.6,256,147.8,256z"/>
	</g>
</g>
<g>
	<g>
		<path class="st0" d="M368.9,256H181.6c-5.8,0-10.4,4.7-10.4,10.4s4.7,10.4,10.4,10.4h187.3c5.8,0,10.4-4.7,10.4-10.4
			S374.7,256,368.9,256z"/>
	</g>
</g>
<g>
	<g>
		<path class="st0" d="M147.8,208.3h-4.7c-5.8,0-10.4,4.7-10.4,10.4c0,5.8,4.7,10.4,10.4,10.4h4.7c5.8,0,10.4-4.7,10.4-10.4
			S153.6,208.3,147.8,208.3z"/>
	</g>
</g>
<g>
	<g>
		<path class="st0" d="M368.9,208.3H181.6c-5.8,0-10.4,4.7-10.4,10.4c0,5.8,4.7,10.4,10.4,10.4h187.3c5.8,0,10.4-4.7,10.4-10.4
			S374.7,208.3,368.9,208.3z"/>
	</g>
</g>
</svg>
