<?xml version="1.0" encoding="utf-8"?>
<!-- Generator: Adobe Illustrator 24.0.3, SVG Export Plug-In . SVG Version: 6.00 Build 0)  -->
<svg version="1.1" id="Layer_1" xmlns="http://www.w3.org/2000/svg" xmlns:xlink="http://www.w3.org/1999/xlink" x="0px" y="0px"
	 viewBox="0 0 128 128" style="enable-background:new 0 0 128 128;" xml:space="preserve">
<style type="text/css">
	.st0{fill:#C2B197;}
</style>
<g>
	<g>
		<path class="st0" d="M43.9,50.1c-11-2.8-20.6-4.3-27.7-4.2c-5.9,0-9.7,0.9-10.4,2.8c-1,2.8,3.9,7.9,12.8,13.9
			c9.7,6.5,23.9,13.6,40.3,19.7v0h0c16.4,6.1,31.8,9.9,43.4,11.3c10.6,1.2,17.7,0.6,18.8-2.2c0.7-1.8-1.4-4.7-5.5-8.3
			c-4.9-4.4-12.5-9.3-22-14.1l2.2-4.4c9.8,5,17.8,10.2,23,14.8c5.7,5.1,8.3,9.8,6.9,13.7c-1.9,5.2-11,6.9-24,5.4
			C89.8,97,74,93,57.2,86.8v0h0c-16.7-6.2-31.3-13.5-41.3-20.2C5,59.3-0.7,52.1,1.2,46.9c1.5-4,6.9-6,15-6c7.5,0,17.5,1.5,28.9,4.4
			L43.9,50.1z"/>
	</g>
	<g>
		<path class="st0" d="M74.5,45c-4-1.5-7.4-4-10.6-6.3c-3.9-2.8-7.3-5.4-10.4-4.7c-2.9,0.7-3.7,3.7-5.2,9.2c-0.8,3-1.8,6.6-3.4,10.9
			l0,0c7.6,5,15.1,8.9,22.7,11.7c7.5,2.8,15,4.5,22.6,5.2l0-0.1c1.4-3.9,3-7,4.3-9.6c2.2-4.4,3.6-7.2,2-9.7c-1.9-3.1-6.2-3.6-11-4.2
			C82.1,46.9,78.3,46.5,74.5,45L74.5,45z M66.8,34.8c2.9,2.1,6,4.4,9.4,5.7c3.3,1.2,6.8,1.6,10,2c6.1,0.8,11.5,1.4,14.6,6.5
			c3,4.9,1.2,8.6-1.8,14.5c-1.2,2.5-2.7,5.5-4.1,9.1l-0.7,1.8l-0.6,1.7L91.8,76c-8.7-0.5-17.3-2.4-25.9-5.6
			c-8.5-3.2-17-7.6-25.4-13.3L39,56l0.7-1.8l0.7-1.8c1.5-4,2.4-7.5,3.2-10.5c2-7.2,3.1-11.3,8.9-12.7C57.7,28,62,31.2,66.8,34.8z"/>
	</g>
</g>
</svg>
