<?xml version="1.0" encoding="utf-8"?>
<!-- Generator: Adobe Illustrator 24.0.3, SVG Export Plug-In . SVG Version: 6.00 Build 0)  -->
<svg version="1.1" id="Layer_1_1_" xmlns="http://www.w3.org/2000/svg" xmlns:xlink="http://www.w3.org/1999/xlink" x="0px" y="0px"
	 viewBox="0 0 512 512" style="enable-background:new 0 0 512 512;" xml:space="preserve">
<style type="text/css">
	.st0{fill:#C2B197;}
</style>
<path class="st0" d="M107.7,294.4c-8.4-4.1-17.8-6.4-27.7-6.4c-35.3,0-64,28.7-64,64s28.7,64,64,64c22.1,0,41.7-11.3,53.2-28.5
	l60.5,30.3c-1,4.6-1.6,9.3-1.6,14.2c0,35.3,28.7,64,64,64s64-28.7,64-64c0-13.3-4.1-25.6-11-35.8l85-88.8
	c10.7,7.9,23.8,12.6,38,12.6c35.3,0,64-28.7,64-64s-28.7-64-64-64c-14.8,0-28.3,5.1-39.2,13.5l-86.3-86.3
	C314.9,108.3,320,94.8,320,80c0-35.3-28.7-64-64-64s-64,28.7-64,64c0,4.9,0.6,9.6,1.6,14.2l-56.7,20.7C126.3,94.2,104.8,80,80,80
	c-35.3,0-64,28.7-64,64s28.7,64,64,64c9.1,0,17.8-1.9,25.6-5.4l29.4,49.6L107.7,294.4z M80,400c-26.5,0-48-21.5-48-48s21.5-48,48-48
	s48,21.5,48,48S106.5,400,80,400z M140.3,373.2c2.3-6.6,3.7-13.8,3.7-21.2c0-19.6-8.9-37.2-22.8-48.9l23-35.5l69.4,116.7
	c-5.8,5.2-10.7,11.4-14.4,18.4L140.3,373.2z M256,144c14.8,0,28.3-5.1,39.2-13.5l86.3,86.3c-5.2,6.7-9,14.3-11.3,22.7l-50.3-6.9
	c0-0.2,0-0.4,0-0.6c0-35.3-28.7-64-64-64c-22.1,0-41.7,11.3-53.2,28.5l-9.5-4.8l35-54.1C236.7,141.7,246.1,144,256,144L256,144z
	 M264,368.6v-73.1c26-3.3,47.2-22.2,53.8-47l50.3,6.9c0,0.2,0,0.4,0,0.6c0,15.3,5.4,29.3,14.4,40.3l-84,87.8
	C288.9,375.8,277.1,370.2,264,368.6z M256,184c26.5,0,48,21.5,48,48s-21.5,48-48,48s-48-21.5-48-48S229.5,184,256,184z M195.7,210.8
	c-2.3,6.6-3.7,13.8-3.7,21.2c0,32.6,24.5,59.5,56,63.4v73.1c-7.6,1-14.7,3.2-21.3,6.6l-72.9-122.6l30.6-47.3L195.7,210.8z M256,480
	c-26.5,0-48-21.5-48-48s21.5-48,48-48s48,21.5,48,48S282.5,480,256,480z M432,208c26.5,0,48,21.5,48,48s-21.5,48-48,48
	s-48-21.5-48-48S405.5,208,432,208z M256,32c26.5,0,48,21.5,48,48s-21.5,48-48,48s-48-21.5-48-48S229.5,32,256,32z M199.1,109.2
	c3.9,7.6,9.3,14.3,15.7,19.8l-36,55.6l-38.6-19.3c2.3-6.6,3.7-13.8,3.7-21.2c0-4.9-0.6-9.6-1.6-14.2L199.1,109.2z M32,144
	c0-26.5,21.5-48,48-48s48,21.5,48,48s-21.5,48-48,48S32,170.5,32,144z M119.3,194.4c5.4-4.2,10.1-9.2,13.9-14.8l36.9,18.5
	l-25.4,39.2L119.3,194.4z"/>
</svg>
